inDegrees=no
num_controls=7
num_derivatives=13
num_iterations=246
num_multipliers=7
num_parameters=0
num_slacks=7
num_states=26
objective=5.423197
objective_accelerations=0.360439
objective_balance=0.050989
objective_effort=0.352833
objective_height=4.586553
objective_ligament=0.072382
solver_duration=2407.651958
status=Solve_Succeeded
success=true
DataType=double
version=3
OpenSimVersion=4.4-2022-07-23-0e9fedc
endheader
time	/jointset/ground_pelvis/pelvis_tilt/value	/jointset/ground_pelvis/pelvis_tx/value	/jointset/ground_pelvis/pelvis_ty/value	/jointset/hip_l/hip_flexion_l/value	/jointset/hip_l/hip_adduction_l/value	/jointset/hip_l/hip_rotation_l/value	/jointset/back/lumbar_extension/value	/jointset/patellofemoral_l/patellar_flexion_l/value	/jointset/knee_l/knee_flexion_l/value	/jointset/knee_l/knee_adduction_l/value	/jointset/knee_l/knee_rotation_l/value	/jointset/ankle_l/ankle_angle_l/value	/jointset/subtalar_l/subtalar_angle_l/value	/jointset/ground_pelvis/pelvis_tilt/speed	/jointset/ground_pelvis/pelvis_tx/speed	/jointset/ground_pelvis/pelvis_ty/speed	/jointset/hip_l/hip_flexion_l/speed	/jointset/hip_l/hip_adduction_l/speed	/jointset/hip_l/hip_rotation_l/speed	/jointset/back/lumbar_extension/speed	/jointset/patellofemoral_l/patellar_flexion_l/speed	/jointset/knee_l/knee_flexion_l/speed	/jointset/knee_l/knee_adduction_l/speed	/jointset/knee_l/knee_rotation_l/speed	/jointset/ankle_l/ankle_angle_l/speed	/jointset/subtalar_l/subtalar_angle_l/speed	/forceset/tau_hip_flexion_l	/forceset/tau_hip_adduction_l	/forceset/tau_hip_rotation_l	/forceset/tau_knee_flexion_l	/forceset/tau_ankle_angle_l	/forceset/tau_subtalar_angle_l	/forceset/tau_lumbar_extension	lambda_cid13_p0	lambda_cid13_p1	lambda_cid13_p2	lambda_cid13_p3	lambda_cid13_p4	lambda_cid13_p5	lambda_cid14_p0	/jointset/ground_pelvis/pelvis_tilt/accel	/jointset/ground_pelvis/pelvis_tx/accel	/jointset/ground_pelvis/pelvis_ty/accel	/jointset/hip_l/hip_flexion_l/accel	/jointset/hip_l/hip_adduction_l/accel	/jointset/hip_l/hip_rotation_l/accel	/jointset/back/lumbar_extension/accel	/jointset/patellofemoral_l/patellar_flexion_l/accel	/jointset/knee_l/knee_flexion_l/accel	/jointset/knee_l/knee_adduction_l/accel	/jointset/knee_l/knee_rotation_l/accel	/jointset/ankle_l/ankle_angle_l/accel	/jointset/subtalar_l/subtalar_angle_l/accel	gamma_cid13_p0	gamma_cid13_p1	gamma_cid13_p2	gamma_cid13_p3	gamma_cid13_p4	gamma_cid13_p5	gamma_cid14_p0
1	0.0992793821229523	0.02683664012953052	0.774643235328256	0.8049702453489812	-0.3457291082744863	0.01108911503660421	-0.9599310885968813	1.226069396655043	1.226069396655038	-0.08994960959910181	-0.1745329251994329	0.4109920860680816	0.1044706232257758	0.1230142287620995	0.03246355282555045	0.05649170760628475	-0.3091409382983314	-0.001923695462169773	-0.06793745893458428	-0.003861598725107308	-0.1620121137230852	-0.1620121137230839	0.0008739642569458158	-1.911652056368982e-06	0.01443470016978034	0.006199727942067993	-0.2257584330180548	0.05351586707733436	-0.003468696571924826	-0.3670814484533819	-0.08938907986373014	0.03768306391407047	0.3469971788450119	-76.88252108240371	-3.887231450506675	1.288302212268958	19.12107881963357	-774.6898229454391	-78.37569224032312	-0.6903938500340243	0.04118195024664452	-0.1035877822663215	1.04079833864192	-2.807181131552094	0.1308688481266551	-1.400888367906074	0.7423134903970108	-4.317947998816827	-4.317947998816711	-0.183371839428496	-0.01146183030108718	-1.863009848130034	-0.7705457138155302	-9.682319637847069e-09	2.017240118740268e-08	3.902188331963657e-08	9.534941989911431e-09	-2.421607782169001e-08	6.341995432846372e-08	-9.314018702912527e-09
1.01	0.1005109562361884	0.02715627517823035	0.7752599951508765	0.8017394155587637	-0.3457413521830614	0.01033923688933217	-0.9599310885968813	1.224233901333152	1.224233901333152	-0.08994873859553805	-0.1745329147723292	0.4110436935519973	0.1044950351602423	0.1232709151118998	0.03148105187443297	0.06685121619435103	-0.337000657642947	-0.0005217570885263139	-0.0820317493605579	0.003969868581655442	-0.2050791337450809	-0.2050791337450798	-0.0007020426729257784	3.257450847858987e-06	-0.004098457676205121	-0.001303850948659057	-0.225472676929521	0.05366323550172435	-0.003522424080493639	-0.3666274754119523	-0.08963990892594996	0.03778199822389797	0.3472440371155312	-76.94894288065896	-3.94349456458241	1.325743776800434	18.86889553864021	-774.7892673650206	-78.43000415976203	-0.7148433769182081	0.01345925582296742	-0.09293903400538465	1.032165069806192	-2.771714671014372	0.1453511035542244	-1.41274702677056	0.8197610124575839	-4.299903906332814	-4.2999039063329	-0.1450621235993452	0.00634723802167264	-1.846258002996595	-0.7382490342372969	-1.511728532147513e-08	1.113999905672467e-08	5.93241514945221e-08	1.481415248817407e-08	-2.964792325271054e-08	5.789300328368356e-08	-1.277035376473703e-08
1.02	0.101744206668617	0.02746661366092481	0.7759800776495613	0.7982307191080772	-0.3457394777535861	0.009448606308435154	-0.9598495407880727	1.221967970830553	1.221967970830559	-0.0899636970620387	-0.1745328824082687	0.4109104116074203	0.1044448142942944	0.123349492600751	0.03060423962447692	0.07715624281911422	-0.3647142703914862	0.0008999721479577477	-0.09608794565963431	0.01244924235408814	-0.2480991498647514	-0.248099149864751	-0.002291929756111301	2.064851171258234e-06	-0.0225431855287421	-0.008726832140826514	-0.225186920841	0.05381060392611486	-0.003576151589057015	-0.3661735023705252	-0.08989073798816863	0.03788093253372678	0.3474908953860399	-77.02941501010822	-3.99628799977615	1.361478429046182	18.67228205660414	-775.0745314678767	-78.47573367405916	-0.7456321450460844	0.005560178056798004	-0.08245004203402861	1.029901945981305	-2.777959812336821	0.1348270206947584	-1.393269542526649	0.8718947835310329	-4.308547218351786	-4.308547218351779	-0.1861478700912908	-0.01273417081729436	-1.845323849440327	-0.7544261741036328	-1.875830063869666e-08	-2.708008947559467e-09	7.958158771624695e-08	1.590168027752832e-08	-3.435944536545944e-08	4.304871429282394e-08	-1.573760936723979e-08
1.03	0.1029772635990567	0.02776877138403493	0.7768028946229649	0.7944456933729499	-0.3457232899377704	0.008417683234710861	-0.9596796109366457	1.219272137939555	1.219272137939563	-0.08999467692945402	-0.1745328732322329	0.4105932078484744	0.1043208363768777	0.1232226202953464	0.02985093698638295	0.0873936863515757	-0.3922581771518302	0.00234111259746907	-0.1100866445266752	0.02168011493829192	-0.2910532810915731	-0.2910532810915755	-0.003907088687270227	-1.866244368361758e-08	-0.04087426066646687	-0.01604746156649435	-0.2250000409402581	0.05395193861581817	-0.003648718529271879	-0.3653953832434612	-0.09003869620739972	0.0380208142625101	0.3478693055325899	-77.05694689300729	-4.088552356034367	1.41769075064541	18.33748417327176	-775.1764227842433	-78.53959411710925	-0.7831183470193108	-0.02770289669368768	-0.06822218072515367	1.018637889145878	-2.73770309125664	0.1492759176522996	-1.401683516990013	0.9701915468700114	-4.286720230432747	-4.286720230433168	-0.149665719546491	0.006105819913675659	-1.823506012047287	-0.7176967854787866	-2.238101033993444e-08	-1.66051557872886e-08	9.983856646906199e-08	1.694643579434266e-08	-3.906361724026677e-08	2.810935042496346e-08	-1.869987436301478e-08
